<svg id="wave" style="transform:rotate(180deg); transition: 0.3s" viewBox="0 0 1440 490" version="1.1" xmlns="http://www.w3.org/2000/svg"><defs><linearGradient id="sw-gradient-0" x1="0" x2="0" y1="1" y2="0"><stop stop-color="rgba(255, 229, 206, 1)" offset="0%"></stop><stop stop-color="rgba(255, 229, 206, 1)" offset="100%"></stop></linearGradient></defs><path style="transform:translate(0, 0px); opacity:1" fill="url(#sw-gradient-0)" d="M0,98L21.8,155.2C43.6,212,87,327,131,343C174.5,359,218,278,262,277.7C305.5,278,349,359,393,383.8C436.4,408,480,376,524,310.3C567.3,245,611,147,655,155.2C698.2,163,742,278,785,334.8C829.1,392,873,392,916,400.2C960,408,1004,425,1047,416.5C1090.9,408,1135,376,1178,334.8C1221.8,294,1265,245,1309,228.7C1352.7,212,1396,229,1440,253.2C1483.6,278,1527,310,1571,302.2C1614.5,294,1658,245,1702,220.5C1745.5,196,1789,196,1833,220.5C1876.4,245,1920,294,1964,302.2C2007.3,310,2051,278,2095,261.3C2138.2,245,2182,245,2225,220.5C2269.1,196,2313,147,2356,155.2C2400,163,2444,229,2487,285.8C2530.9,343,2575,392,2618,408.3C2661.8,425,2705,408,2749,343C2792.7,278,2836,163,2880,155.2C2923.6,147,2967,245,3011,236.8C3054.5,229,3098,114,3120,57.2L3141.8,0L3141.8,490L3120,490C3098.2,490,3055,490,3011,490C2967.3,490,2924,490,2880,490C2836.4,490,2793,490,2749,490C2705.5,490,2662,490,2618,490C2574.5,490,2531,490,2487,490C2443.6,490,2400,490,2356,490C2312.7,490,2269,490,2225,490C2181.8,490,2138,490,2095,490C2050.9,490,2007,490,1964,490C1920,490,1876,490,1833,490C1789.1,490,1745,490,1702,490C1658.2,490,1615,490,1571,490C1527.3,490,1484,490,1440,490C1396.4,490,1353,490,1309,490C1265.5,490,1222,490,1178,490C1134.5,490,1091,490,1047,490C1003.6,490,960,490,916,490C872.7,490,829,490,785,490C741.8,490,698,490,655,490C610.9,490,567,490,524,490C480,490,436,490,393,490C349.1,490,305,490,262,490C218.2,490,175,490,131,490C87.3,490,44,490,22,490L0,490Z"></path></svg>