<?xml version="1.0" standalone="no"?><svg xmlns="http://www.w3.org/2000/svg" viewBox="0 0 1440 320"><path fill="#FFE4CD" fill-opacity="1" d="M0,96L34.3,117.3C68.6,139,137,181,206,213.3C274.3,245,343,267,411,256C480,245,549,203,617,176C685.7,149,754,139,823,122.7C891.4,107,960,85,1029,106.7C1097.1,128,1166,192,1234,186.7C1302.9,181,1371,107,1406,69.3L1440,32L1440,0L1405.7,0C1371.4,0,1303,0,1234,0C1165.7,0,1097,0,1029,0C960,0,891,0,823,0C754.3,0,686,0,617,0C548.6,0,480,0,411,0C342.9,0,274,0,206,0C137.1,0,69,0,34,0L0,0Z"></path></svg>